<svg xmlns="http://www.w3.org/2000/svg" preserveAspectRatio="xMidYMid" width="24" height="24" viewBox="0 0 24 24"><defs><style>.cls-1{fill:#9e9e9e;fill-rule:evenodd}</style></defs><path d="M16.687 2.85C12.872-.965 6.664-.965 2.849 2.85c-3.813 3.815-3.813 10.022 0 13.837 3.397 3.397 8.688 3.76 12.5 1.108.08.38.264.741.558 1.037l4.556 4.553a2.064 2.064 0 0 0 2.923 0 2.064 2.064 0 0 0 0-2.922l-4.556-4.556a2.043 2.043 0 0 0-1.036-.557c2.654-3.813 2.29-9.101-1.107-12.5zm-1.754 12.084c-2.848 2.847-7.482 2.847-10.33 0-2.846-2.848-2.846-7.481 0-10.329 2.848-2.848 7.482-2.848 10.33 0s2.848 7.481 0 10.329z" class="cls-1"/></svg>