<svg xmlns="http://www.w3.org/2000/svg" preserveAspectRatio="xMidYMid" width="11" height="11" viewBox="0 0 11 11"><defs><style>.cls-1{fill:#828587;fill-rule:evenodd}</style></defs><path d="M10.522 3.749l-3.03-.302a.526.526 0 0 1-.434-.338L5.973.341a.51.51 0 0 0-.964 0L3.933 3.109a.516.516 0 0 1-.434.338l-3.03.302c-.451.045-.634.639-.295.959l2.283 2.111a.563.563 0 0 1 .165.538l-.686 2.961c-.104.466.373.849.773.603l2.526-1.563c.165-.1.365-.1.53 0l2.526 1.563c.399.246.877-.128.773-.603l-.678-2.961a.565.565 0 0 1 .165-.538l2.284-2.111c.329-.32.138-.914-.313-.959z" class="cls-1"/></svg>